<svg xmlns="http://www.w3.org/2000/svg" viewBox="0 0 200 200" fill="currentColor">
  <!-- Complex folded paper cutout with layered patterns -->
  <g transform="translate(100,100)">
    <defs>
      <g id="complex-arm">
        <!-- Main stem -->
        <rect x="-2" y="0" width="4" height="75"/>

        <!-- Primary branches -->
        <g id="branch-set">
          <!-- Lower V -->
          <path d="M 0,15 L -12,3 L -10,1 L 0,10 L 10,1 L 12,3 Z"/>
          <!-- Middle double-V -->
          <path d="M 0,30 L -16,14 L -14,12 L 0,25 L 14,12 L 16,14 Z"/>
          <path d="M 0,35 L -10,25 L -8,23 L 0,30 L 8,23 L 10,25 Z"/>
          <!-- Upper V -->
          <path d="M 0,50 L -20,30 L -18,28 L 0,45 L 18,28 L 20,30 Z"/>
          <!-- Tip branches -->
          <path d="M 0,65 L -8,57 L -6,55 L 0,60 L 6,55 L 8,57 Z"/>
        </g>

        <!-- Decorative cuts (triangles and diamonds) -->
        <path d="M -3,20 L 0,24 L 3,20 Z" fill="white"/>
        <path d="M -3,40 L 0,44 L 3,40 Z" fill="white"/>
        <path d="M 0,55 L -2,53 L 0,51 L 2,53 Z" fill="white"/>

        <!-- End crystal -->
        <path d="M 0,75 L -4,71 L 0,67 L 4,71 Z"/>
        <circle cx="0" cy="72" r="2"/>
      </g>
    </defs>

    <!-- Create 6 complex arms -->
    <use href="#complex-arm" transform="rotate(0)"/>
    <use href="#complex-arm" transform="rotate(60)"/>
    <use href="#complex-arm" transform="rotate(120)"/>
    <use href="#complex-arm" transform="rotate(180)"/>
    <use href="#complex-arm" transform="rotate(240)"/>
    <use href="#complex-arm" transform="rotate(300)"/>

    <!-- Intricate center -->
    <polygon points="0,-15 13,-7.5 13,7.5 0,15 -13,7.5 -13,-7.5"/>
    <polygon points="0,-8 7,-4 7,4 0,8 -7,4 -7,-4" fill="white"/>
    <circle cx="0" cy="0" r="3"/>
  </g>
</svg>