<svg xmlns="http://www.w3.org/2000/svg" viewBox="0 0 200 200" fill="currentColor">
  <!-- Simple elegant paper cutout -->
  <g transform="translate(100,100)">
    <defs>
      <g id="ray">
        <!-- Main line with notches -->
        <path d="M 0,0 L 0,-70"/>
        <!-- Tree-like branches -->
        <path d="M 0,-15 L -8,-7 M 0,-15 L 8,-7"/>
        <path d="M 0,-30 L -12,-18 M 0,-30 L 12,-18"/>
        <path d="M 0,-45 L -15,-30 M 0,-45 L 15,-30"/>
        <path d="M 0,-60 L -10,-50 M 0,-60 L 10,-50"/>
        <!-- Decorative diamonds -->
        <path d="M 0,-25 L -2,-23 L 0,-21 L 2,-23 Z"/>
        <path d="M 0,-40 L -2,-38 L 0,-36 L 2,-38 Z"/>
        <path d="M 0,-55 L -2,-53 L 0,-51 L 2,-53 Z"/>
        <!-- End decoration -->
        <circle cx="0" cy="-70" r="4"/>
        <circle cx="0" cy="-70" r="2" fill="white"/>
      </g>
    </defs>

    <!-- Style for all paths -->
    <g stroke="currentColor" stroke-width="2.5" fill="currentColor">
      <!-- 6 rays -->
      <use href="#ray" transform="rotate(0)"/>
      <use href="#ray" transform="rotate(60)"/>
      <use href="#ray" transform="rotate(120)"/>
      <use href="#ray" transform="rotate(180)"/>
      <use href="#ray" transform="rotate(240)"/>
      <use href="#ray" transform="rotate(300)"/>
    </g>

    <!-- Center rosette -->
    <circle cx="0" cy="0" r="8" fill="currentColor"/>
    <polygon points="0,-5 2.89,-1.67 2.89,1.67 0,5 -2.89,1.67 -2.89,-1.67" fill="white"/>
  </g>
</svg>