<svg xmlns="http://www.w3.org/2000/svg" viewBox="0 0 200 200" fill="currentColor">
  <!-- Classic folded paper with triangle cuts -->
  <g transform="translate(100,100)">
    <defs>
      <g id="spoke">
        <!-- Main spoke -->
        <rect x="-1.5" y="0" width="3" height="70"/>
        <!-- Arrow branches -->
        <path d="M 0,20 L -10,10 L -8,8 L 0,15 L 8,8 L 10,10 Z"/>
        <path d="M 0,40 L -15,25 L -12,22 L 0,35 L 12,22 L 15,25 Z"/>
        <path d="M 0,60 L -8,52 L -6,50 L 0,55 L 6,50 L 8,52 Z"/>
        <!-- Diamond holes -->
        <path d="M 0,30 L -3,27 L 0,24 L 3,27 Z" fill="white"/>
        <path d="M 0,50 L -3,47 L 0,44 L 3,47 Z" fill="white"/>
      </g>
    </defs>

    <!-- 6 spokes -->
    <use href="#spoke" transform="rotate(0)"/>
    <use href="#spoke" transform="rotate(60)"/>
    <use href="#spoke" transform="rotate(120)"/>
    <use href="#spoke" transform="rotate(180)"/>
    <use href="#spoke" transform="rotate(240)"/>
    <use href="#spoke" transform="rotate(300)"/>

    <!-- Center hexagon with cutout -->
    <polygon points="0,-10 8.66,-5 8.66,5 0,10 -8.66,5 -8.66,-5"/>
    <polygon points="0,-5 4.33,-2.5 4.33,2.5 0,5 -4.33,2.5 -4.33,-2.5" fill="white"/>
  </g>
</svg>