<svg xmlns="http://www.w3.org/2000/svg" viewBox="0 0 200 200" fill="currentColor">
  <!-- Intricate paper cutout with multiple layers -->
  <g transform="translate(100,100)">
    <defs>
      <g id="petal">
        <!-- Main branch -->
        <path d="M 0,0 L 0,-75 L -3,-72 L 0,-70 L 3,-72 Z"/>
        <!-- Side branches with triangular cuts -->
        <path d="M 0,-20 L -12,-8 L -10,-6 Z"/>
        <path d="M 0,-20 L 12,-8 L 10,-6 Z"/>
        <path d="M 0,-40 L -18,-22 L -15,-20 Z"/>
        <path d="M 0,-40 L 18,-22 L 15,-20 Z"/>
        <path d="M 0,-60 L -10,-50 L -8,-48 Z"/>
        <path d="M 0,-60 L 10,-50 L 8,-48 Z"/>
        <!-- Small decorative triangles -->
        <path d="M -4,-30 L 0,-26 L 4,-30 Z"/>
        <path d="M -4,-50 L 0,-46 L 4,-50 Z"/>
        <circle cx="0" cy="-65" r="3"/>
      </g>
    </defs>

    <!-- Create 6 petals -->
    <use href="#petal" transform="rotate(0)"/>
    <use href="#petal" transform="rotate(60)"/>
    <use href="#petal" transform="rotate(120)"/>
    <use href="#petal" transform="rotate(180)"/>
    <use href="#petal" transform="rotate(240)"/>
    <use href="#petal" transform="rotate(300)"/>

    <!-- Center design -->
    <circle cx="0" cy="0" r="12"/>
    <circle cx="0" cy="0" r="7" fill="white"/>
    <polygon points="0,-4 3.46,-2 3.46,2 0,4 -3.46,2 -3.46,-2"/>
  </g>
</svg>